<svg width="36" height="36" viewBox="0 0 36 36" fill="none" xmlns="http://www.w3.org/2000/svg">
<path fill-rule="evenodd" clip-rule="evenodd" d="M29.25 25.875C29.8713 25.875 30.375 25.3713 30.375 24.75V9C30.375 8.37868 29.8713 7.875 29.25 7.875H6.75C6.12868 7.875 5.625 8.37868 5.625 9V24.75C5.625 25.3713 6.12868 25.875 6.75 25.875H29.25ZM32.625 24.75C32.625 26.614 31.114 28.125 29.25 28.125H6.75C4.88604 28.125 3.375 26.614 3.375 24.75V9C3.375 7.13604 4.88604 5.625 6.75 5.625H29.25C31.114 5.625 32.625 7.13604 32.625 9V24.75Z" fill="#7B76FF" fill-opacity="0.8"/>
<path fill-rule="evenodd" clip-rule="evenodd" d="M12.375 31.5C12.375 30.8787 12.8787 30.375 13.5 30.375H22.5C23.1213 30.375 23.625 30.8787 23.625 31.5C23.625 32.1213 23.1213 32.625 22.5 32.625H13.5C12.8787 32.625 12.375 32.1213 12.375 31.5Z" fill="#7B76FF" fill-opacity="0.8"/>
<g clip-path="url(#clip0_167_7923)">
<path d="M18 21.5455C17.6643 21.5455 17.3424 21.6748 17.1051 21.9049C16.8677 22.1351 16.7344 22.4472 16.7344 22.7727C16.7344 23.0982 16.8677 23.4104 17.1051 23.6405C17.3424 23.8707 17.6643 24 18 24C18.3357 24 18.6576 23.8707 18.8949 23.6405C19.1323 23.4104 19.2656 23.0982 19.2656 22.7727C19.2656 22.4472 19.1323 22.1351 18.8949 21.9049C18.6576 21.6748 18.3357 21.5455 18 21.5455ZM14.2031 10.5C13.8675 10.5 13.5455 10.6293 13.3082 10.8595C13.0708 11.0896 12.9375 11.4018 12.9375 11.7273C12.9375 12.0528 13.0708 12.3649 13.3082 12.5951C13.5455 12.8252 13.8675 12.9545 14.2031 12.9545C14.5388 12.9545 14.8607 12.8252 15.0981 12.5951C15.3354 12.3649 15.4688 12.0528 15.4688 11.7273C15.4688 11.4018 15.3354 11.0896 15.0981 10.8595C14.8607 10.6293 14.5388 10.5 14.2031 10.5ZM14.2031 14.1818C13.8675 14.1818 13.5455 14.3111 13.3082 14.5413C13.0708 14.7714 12.9375 15.0836 12.9375 15.4091C12.9375 15.7346 13.0708 16.0467 13.3082 16.2769C13.5455 16.5071 13.8675 16.6364 14.2031 16.6364C14.5388 16.6364 14.8607 16.5071 15.0981 16.2769C15.3354 16.0467 15.4688 15.7346 15.4688 15.4091C15.4688 15.0836 15.3354 14.7714 15.0981 14.5413C14.8607 14.3111 14.5388 14.1818 14.2031 14.1818ZM14.2031 17.8636C13.8675 17.8636 13.5455 17.9929 13.3082 18.2231C13.0708 18.4533 12.9375 18.7654 12.9375 19.0909C12.9375 19.4164 13.0708 19.7286 13.3082 19.9587C13.5455 20.1889 13.8675 20.3182 14.2031 20.3182C14.5388 20.3182 14.8607 20.1889 15.0981 19.9587C15.3354 19.7286 15.4688 19.4164 15.4688 19.0909C15.4688 18.7654 15.3354 18.4533 15.0981 18.2231C14.8607 17.9929 14.5388 17.8636 14.2031 17.8636ZM21.7969 12.9545C22.1325 12.9545 22.4545 12.8252 22.6918 12.5951C22.9292 12.3649 23.0625 12.0528 23.0625 11.7273C23.0625 11.4018 22.9292 11.0896 22.6918 10.8595C22.4545 10.6293 22.1325 10.5 21.7969 10.5C21.4612 10.5 21.1393 10.6293 20.9019 10.8595C20.6646 11.0896 20.5312 11.4018 20.5312 11.7273C20.5312 12.0528 20.6646 12.3649 20.9019 12.5951C21.1393 12.8252 21.4612 12.9545 21.7969 12.9545ZM18 17.8636C17.6643 17.8636 17.3424 17.9929 17.1051 18.2231C16.8677 18.4533 16.7344 18.7654 16.7344 19.0909C16.7344 19.4164 16.8677 19.7286 17.1051 19.9587C17.3424 20.1889 17.6643 20.3182 18 20.3182C18.3357 20.3182 18.6576 20.1889 18.8949 19.9587C19.1323 19.7286 19.2656 19.4164 19.2656 19.0909C19.2656 18.7654 19.1323 18.4533 18.8949 18.2231C18.6576 17.9929 18.3357 17.8636 18 17.8636ZM21.7969 17.8636C21.4612 17.8636 21.1393 17.9929 20.9019 18.2231C20.6646 18.4533 20.5312 18.7654 20.5312 19.0909C20.5312 19.4164 20.6646 19.7286 20.9019 19.9587C21.1393 20.1889 21.4612 20.3182 21.7969 20.3182C22.1325 20.3182 22.4545 20.1889 22.6918 19.9587C22.9292 19.7286 23.0625 19.4164 23.0625 19.0909C23.0625 18.7654 22.9292 18.4533 22.6918 18.2231C22.4545 17.9929 22.1325 17.8636 21.7969 17.8636ZM21.7969 14.1818C21.4612 14.1818 21.1393 14.3111 20.9019 14.5413C20.6646 14.7714 20.5312 15.0836 20.5312 15.4091C20.5312 15.7346 20.6646 16.0467 20.9019 16.2769C21.1393 16.5071 21.4612 16.6364 21.7969 16.6364C22.1325 16.6364 22.4545 16.5071 22.6918 16.2769C22.9292 16.0467 23.0625 15.7346 23.0625 15.4091C23.0625 15.0836 22.9292 14.7714 22.6918 14.5413C22.4545 14.3111 22.1325 14.1818 21.7969 14.1818ZM18 14.1818C17.6643 14.1818 17.3424 14.3111 17.1051 14.5413C16.8677 14.7714 16.7344 15.0836 16.7344 15.4091C16.7344 15.7346 16.8677 16.0467 17.1051 16.2769C17.3424 16.5071 17.6643 16.6364 18 16.6364C18.3357 16.6364 18.6576 16.5071 18.8949 16.2769C19.1323 16.0467 19.2656 15.7346 19.2656 15.4091C19.2656 15.0836 19.1323 14.7714 18.8949 14.5413C18.6576 14.3111 18.3357 14.1818 18 14.1818ZM18 10.5C17.6643 10.5 17.3424 10.6293 17.1051 10.8595C16.8677 11.0896 16.7344 11.4018 16.7344 11.7273C16.7344 12.0528 16.8677 12.3649 17.1051 12.5951C17.3424 12.8252 17.6643 12.9545 18 12.9545C18.3357 12.9545 18.6576 12.8252 18.8949 12.5951C19.1323 12.3649 19.2656 12.0528 19.2656 11.7273C19.2656 11.4018 19.1323 11.0896 18.8949 10.8595C18.6576 10.6293 18.3357 10.5 18 10.5Z" fill="#7B76FF" fill-opacity="0.8"/>
</g>
<defs>
<clipPath id="clip0_167_7923">
<rect width="13.5" height="13.5" fill="white" transform="translate(11.25 10.5)"/>
</clipPath>
</defs>
</svg>
