<svg width="36" height="36" viewBox="0 0 36 36" fill="none" xmlns="http://www.w3.org/2000/svg">
<g id="DeviceMobile">
<path id="Vector (Stroke)" fill-rule="evenodd" clip-rule="evenodd" d="M25.875 5.625C25.875 5.00368 25.3713 4.5 24.75 4.5H11.25C10.6287 4.5 10.125 5.00368 10.125 5.625V30.375C10.125 30.9963 10.6287 31.5 11.25 31.5H24.75C25.3713 31.5 25.875 30.9963 25.875 30.375V5.625ZM24.75 2.25C26.614 2.25 28.125 3.76104 28.125 5.625V30.375C28.125 32.239 26.614 33.75 24.75 33.75H11.25C9.38604 33.75 7.875 32.239 7.875 30.375V5.625C7.875 3.76104 9.38604 2.25 11.25 2.25H24.75Z" fill="#7B76FF" fill-opacity="0.8"/>
<path id="Vector" d="M18 29.25C18.932 29.25 19.6875 28.4945 19.6875 27.5625C19.6875 26.6305 18.932 25.875 18 25.875C17.068 25.875 16.3125 26.6305 16.3125 27.5625C16.3125 28.4945 17.068 29.25 18 29.25Z" fill="#7B76FF" fill-opacity="0.8"/>
<path id="Vector (Stroke)_2" fill-rule="evenodd" clip-rule="evenodd" d="M12.375 7.875C12.375 7.25368 12.8787 6.75 13.5 6.75L22.5 6.75C23.1213 6.75 23.625 7.25368 23.625 7.875C23.625 8.49632 23.1213 9 22.5 9H13.5C12.8787 9 12.375 8.49632 12.375 7.875Z" fill="#7B76FF" fill-opacity="0.8"/>
<path id="G" d="M18.6772 23.1341C17.5272 23.1341 16.5572 22.9191 15.7672 22.4891C14.9772 22.0491 14.3772 21.4241 13.9672 20.6141C13.5672 19.8041 13.3672 18.8391 13.3672 17.7191C13.3672 16.6091 13.5722 15.6491 13.9822 14.8391C14.3922 14.0191 14.9872 13.3891 15.7672 12.9491C16.5472 12.5091 17.4822 12.2891 18.5722 12.2891C19.3222 12.2891 20.0172 12.3991 20.6572 12.6191C21.2972 12.8391 21.8322 13.1541 22.2622 13.5641L21.7072 14.7791C21.2272 14.3791 20.7372 14.0941 20.2372 13.9241C19.7372 13.7441 19.1822 13.6541 18.5722 13.6541C17.4022 13.6541 16.5122 14.0091 15.9022 14.7191C15.2922 15.4191 14.9872 16.4191 14.9872 17.7191C14.9872 19.0491 15.2972 20.0591 15.9172 20.7491C16.5472 21.4391 17.4872 21.7841 18.7372 21.7841C19.4972 21.7841 19.945 21.7641 20.695 21.5141C21.445 21.2641 21.5138 19.4242 20.695 18.6791C19.9498 18.0009 18.37 19.105 18.115 18.6791C17.86 18.2531 18.115 17.5091 18.115 17.5091C18.115 17.5091 21.3072 16.4131 22 17.5091C22.6928 18.605 22.6928 22.105 22 22.4891C21.3072 22.8731 21.2972 22.7841 20.6272 22.9241C19.9672 23.0641 19.3172 23.1341 18.6772 23.1341Z" fill="#7B76FF"/>
</g>
</svg>
