<svg width="36" height="36" viewBox="0 0 36 36" fill="none" xmlns="http://www.w3.org/2000/svg">
<path fill-rule="evenodd" clip-rule="evenodd" d="M25.875 5.625C25.875 5.00368 25.3713 4.5 24.75 4.5H11.25C10.6287 4.5 10.125 5.00368 10.125 5.625V30.375C10.125 30.9963 10.6287 31.5 11.25 31.5H24.75C25.3713 31.5 25.875 30.9963 25.875 30.375V5.625ZM24.75 2.25C26.614 2.25 28.125 3.76104 28.125 5.625V30.375C28.125 32.239 26.614 33.75 24.75 33.75H11.25C9.38604 33.75 7.875 32.239 7.875 30.375V5.625C7.875 3.76104 9.38604 2.25 11.25 2.25H24.75Z" fill="#7B76FF" fill-opacity="0.8"/>
<path d="M18 29.25C18.932 29.25 19.6875 28.4945 19.6875 27.5625C19.6875 26.6305 18.932 25.875 18 25.875C17.068 25.875 16.3125 26.6305 16.3125 27.5625C16.3125 28.4945 17.068 29.25 18 29.25Z" fill="#7B76FF" fill-opacity="0.8"/>
<path fill-rule="evenodd" clip-rule="evenodd" d="M12.375 7.875C12.375 7.25368 12.8787 6.75 13.5 6.75L22.5 6.75C23.1213 6.75 23.625 7.25368 23.625 7.875C23.625 8.49632 23.1213 9 22.5 9H13.5C12.8787 9 12.375 8.49632 12.375 7.875Z" fill="#7B76FF" fill-opacity="0.8"/>
<path d="M13.67 22.9058C13.47 22.9058 13.31 22.8608 13.19 22.7708C13.07 22.6808 13 22.5608 12.98 22.4108C12.96 22.2608 12.99 22.0908 13.07 21.9008L17.135 12.7808C17.235 12.5408 17.36 12.3708 17.51 12.2708C17.67 12.1708 17.845 12.1208 18.035 12.1208C18.215 12.1208 18.38 12.1708 18.53 12.2708C18.69 12.3708 18.82 12.5408 18.92 12.7808L22.985 21.9008C23.075 22.0908 23.11 22.2658 23.09 22.4258C23.07 22.5758 23.005 22.6958 22.895 22.7858C22.785 22.8658 22.63 22.9058 22.43 22.9058C22.21 22.9058 22.035 22.8508 21.905 22.7408C21.775 22.6308 21.66 22.4608 21.56 22.2308L20.51 19.8008L21.215 20.2208H14.825L15.515 19.8008L14.48 22.2308C14.38 22.4708 14.27 22.6458 14.15 22.7558C14.03 22.8558 13.87 22.9058 13.67 22.9058ZM18.005 13.9508L15.74 19.3208L15.365 18.9608H20.66L20.315 19.3208L18.035 13.9508H18.005Z" fill="#7B76FF"/>
</svg>
