<svg width="24" height="24" viewBox="0 0 24 24" fill="none" xmlns="http://www.w3.org/2000/svg">
<g id="chat">
<path id="Vector" d="M13.9293 22.9379L11.5934 23L15.7857 16.1878H20.7143C21.15 16.1878 21.5679 16.01 21.876 15.6935C22.1841 15.377 22.3571 14.9478 22.3571 14.5002V4.37506C22.3571 3.9275 22.1841 3.49827 21.876 3.1818C21.5679 2.86532 21.15 2.68753 20.7143 2.68753H4.28571C3.85 2.68753 3.43213 2.86532 3.12404 3.1818C2.81594 3.49827 2.64286 3.9275 2.64286 4.37506V14.5002C2.64286 14.9478 2.81594 15.377 3.12404 15.6935C3.43213 16.01 3.85 16.1878 4.28571 16.1878H11.6786V17.8753H4.28571C3.41429 17.8753 2.57855 17.5197 1.96236 16.8868C1.34617 16.2538 1 15.3954 1 14.5002V4.37506C1 3.47994 1.34617 2.62148 1.96236 1.98853C2.57855 1.35559 3.41429 1 4.28571 1H20.7143C21.5857 1 22.4214 1.35559 23.0376 1.98853C23.6538 2.62148 24 3.47994 24 4.37506V14.5002C24 15.3954 23.6538 16.2538 23.0376 16.8868C22.4214 17.5197 21.5857 17.8753 20.7143 17.8753H16.7386L13.9293 22.9379Z" fill="#FDFEFF"/>
<path id="Vector_2" d="M5 6H18V7.5H5V6ZM5 10.5H13.125V12H5V10.5Z" fill="#FDFEFF"/>
</g>
</svg>
