<svg width="28" height="28" viewBox="0 0 28 28" fill="none" xmlns="http://www.w3.org/2000/svg">
<g id="FileXls">
<path id="Vector (Stroke)" fill-rule="evenodd" clip-rule="evenodd" d="M13.125 17.5C13.6082 17.5 14 17.8918 14 18.375V22.75H16.1875C16.6707 22.75 17.0625 23.1418 17.0625 23.625C17.0625 24.1082 16.6707 24.5 16.1875 24.5H13.125C12.6418 24.5 12.25 24.1082 12.25 23.625V18.375C12.25 17.8918 12.6418 17.5 13.125 17.5Z" fill="#898989" fill-opacity="0.8"/>
<path id="Vector (Stroke)_2" fill-rule="evenodd" clip-rule="evenodd" d="M5.16255 17.6751C5.54915 17.3851 6.0976 17.4635 6.38755 17.8501L10.3251 23.1001C10.615 23.4867 10.5367 24.0351 10.1501 24.3251C9.76345 24.615 9.215 24.5367 8.92505 24.1501L4.98755 18.9001C4.6976 18.5135 4.77595 17.965 5.16255 17.6751Z" fill="#898989" fill-opacity="0.8"/>
<path id="Vector (Stroke)_3" fill-rule="evenodd" clip-rule="evenodd" d="M10.1501 17.6751C10.5367 17.965 10.615 18.5135 10.3251 18.9001L6.38755 24.1501C6.0976 24.5367 5.54915 24.615 5.16255 24.3251C4.77595 24.0351 4.6976 23.4867 4.98755 23.1001L8.92505 17.8501C9.215 17.4635 9.76345 17.3851 10.1501 17.6751Z" fill="#898989" fill-opacity="0.8"/>
<path id="Vector (Stroke)_4" fill-rule="evenodd" clip-rule="evenodd" d="M20.2707 19.3128C20.1924 19.3798 20.1251 19.4851 20.1251 19.6875C20.1251 19.6978 20.1255 19.7048 20.126 19.7092C20.1356 19.7195 20.1637 19.7457 20.2289 19.7828C20.4368 19.9008 20.7469 19.9864 21.2247 20.1133C21.2335 20.1157 21.2425 20.118 21.2515 20.1204C21.6571 20.2281 22.2117 20.3753 22.6585 20.6476C23.179 20.9647 23.6251 21.4975 23.6251 22.3125C23.6251 23.1373 23.271 23.7803 22.6612 24.1706C22.1148 24.5203 21.4535 24.6094 20.8907 24.6094L20.8884 24.6094C20.1092 24.6073 19.3514 24.3547 18.7269 23.8889C18.3395 23.6 18.2597 23.0517 18.5487 22.6644C18.8376 22.277 19.3858 22.1972 19.7732 22.4861C20.0965 22.7272 20.4887 22.8581 20.8919 22.8594C21.3128 22.8592 21.5807 22.7843 21.7178 22.6966C21.775 22.6601 21.8045 22.6248 21.8241 22.5877C21.8448 22.5486 21.8751 22.4675 21.8751 22.3125C21.8751 22.309 21.8751 22.3057 21.8751 22.3024C21.8756 22.2491 21.8758 22.2199 21.7479 22.142C21.5484 22.0204 21.2427 21.9288 20.7754 21.8047C20.7503 21.798 20.7245 21.7912 20.6981 21.7842C20.3073 21.681 19.785 21.5431 19.3649 21.3046C19.1256 21.1687 18.8721 20.9761 18.6789 20.6946C18.4781 20.4018 18.3751 20.06 18.3751 19.6875C18.3751 19.0149 18.6358 18.4092 19.1318 17.9841C19.6134 17.5712 20.2424 17.3906 20.8907 17.3906H20.893V17.3906C21.6721 17.3927 22.4299 17.6453 23.0545 18.1111C23.4418 18.4 23.5216 18.9483 23.2327 19.3356C22.9438 19.723 22.3955 19.8028 22.0082 19.5139C21.6849 19.2728 21.2928 19.1419 20.8895 19.1406C20.5541 19.1408 20.3631 19.2335 20.2707 19.3128ZM20.1271 19.7155C20.1271 19.7156 20.1269 19.715 20.1267 19.7137L20.1271 19.7155Z" fill="#898989" fill-opacity="0.8"/>
<path id="Vector (Stroke)_5" fill-rule="evenodd" clip-rule="evenodd" d="M4.88756 3.13756C5.21575 2.80938 5.66087 2.625 6.125 2.625H16.625C16.8571 2.625 17.0796 2.71719 17.2437 2.88128L23.3687 9.00628C23.5328 9.17038 23.625 9.39294 23.625 9.625V14C23.625 14.4832 23.2332 14.875 22.75 14.875C22.2668 14.875 21.875 14.4832 21.875 14V9.98744L16.2626 4.375L6.125 4.375L6.125 14C6.125 14.4832 5.73325 14.875 5.25 14.875C4.76675 14.875 4.375 14.4832 4.375 14V4.375C4.375 3.91087 4.55938 3.46575 4.88756 3.13756Z" fill="#898989" fill-opacity="0.8"/>
<path id="Vector (Stroke)_6" fill-rule="evenodd" clip-rule="evenodd" d="M16.625 2.625C17.1082 2.625 17.5 3.01675 17.5 3.5V8.75H22.75C23.2332 8.75 23.625 9.14175 23.625 9.625C23.625 10.1082 23.2332 10.5 22.75 10.5H16.625C16.1418 10.5 15.75 10.1082 15.75 9.625V3.5C15.75 3.01675 16.1418 2.625 16.625 2.625Z" fill="#898989" fill-opacity="0.8"/>
</g>
</svg>
