<svg width="24" height="24" viewBox="0 0 24 24" fill="none" xmlns="http://www.w3.org/2000/svg">
<g id="outlook">
<path id="Vector" d="M7.88 12.04C7.88 12.34 7.84333 12.63 7.77 12.91C7.70333 13.1833 7.59333 13.43 7.44 13.65C7.29333 13.87 7.1 14.0433 6.86 14.17C6.61333 14.3033 6.32333 14.37 5.99 14.37C5.65667 14.37 5.37333 14.3033 5.14 14.17C4.90667 14.03 4.71667 13.8467 4.57 13.62C4.42333 13.4 4.31333 13.15 4.24 12.87C4.17333 12.59 4.14 12.3033 4.14 12.01C4.14 11.7167 4.17333 11.4267 4.24 11.14C4.30667 10.8533 4.42 10.6 4.58 10.38C4.72667 10.1533 4.92333 9.97333 5.17 9.84C5.41 9.70667 5.7 9.64 6.04 9.64C6.38 9.64 6.66667 9.70667 6.9 9.84C7.13333 9.98 7.32333 10.1633 7.47 10.39C7.61667 10.6167 7.72 10.8733 7.78 11.16C7.84667 11.4467 7.88 11.74 7.88 12.04ZM24 12V21.38C24 21.6867 23.89 21.9533 23.67 22.18C23.45 22.3933 23.1833 22.5 22.87 22.5H7.13C6.82333 22.5 6.55667 22.39 6.33 22.17C6.11667 21.95 6.01 21.6833 6.01 21.37V18H1C0.726667 18 0.493333 17.9 0.3 17.7C0.1 17.5067 0 17.2733 0 17V7C0 6.72667 0.1 6.49333 0.3 6.3C0.486667 6.1 0.72 6 1 6H7.5V2.55C7.5 2.25667 7.6 2.00667 7.8 1.8C8 1.6 8.25 1.5 8.55 1.5H21.45C21.7433 1.5 21.9933 1.6 22.2 1.8C22.4 2 22.5 2.25 22.5 2.55V10.85L23.74 11.57H23.75C23.8167 11.6167 23.8767 11.6767 23.93 11.75C23.9767 11.83 24 11.9133 24 12ZM18 3.75V6.75H21V3.75H18ZM18 8.25V11.25H21V8.25H18ZM18 12.75V14.58L21.05 12.75H18ZM12.75 3.75V6.75H16.5V3.75H12.75ZM12.75 8.25V11.25H16.5V8.25H12.75ZM12.75 12.75V14.78L15.16 16.28L16.5 15.48V12.75H12.75ZM9 3.75V6H11L11.13 6.01L11.25 6.05V3.75H9ZM5.98 15.98C6.58 15.98 7.11333 15.88 7.58 15.68C8.04667 15.4667 8.44333 15.18 8.77 14.82C9.09 14.4533 9.33333 14.0267 9.5 13.54C9.66667 13.0467 9.75 12.51 9.75 11.93C9.75 11.3767 9.66667 10.86 9.5 10.38C9.34 9.90667 9.10333 9.49333 8.79 9.14C8.47667 8.78667 8.09333 8.51 7.64 8.31C7.18667 8.11 6.67 8.01 6.09 8.01C5.47667 8.01 4.93 8.11 4.45 8.31C3.97667 8.51 3.57667 8.79333 3.25 9.16C2.91667 9.52 2.66667 9.95333 2.5 10.46C2.33333 10.9533 2.25 11.4967 2.25 12.09C2.25 12.6567 2.33667 13.1767 2.51 13.65C2.68333 14.13 2.93 14.54 3.25 14.88C3.57 15.2267 3.96 15.4967 4.42 15.69C4.88 15.89 5.4 15.99 5.98 15.99V15.98ZM7.5 21H19.89L12 16.08V17C12 17.2733 11.9 17.5067 11.7 17.7C11.5067 17.9 11.2733 18 11 18H7.5V21ZM22.5 20.87V13.63L16.6 17.17L22.5 20.87Z" fill="#FDFEFF"/>
</g>
</svg>
