<svg width="24" height="24" viewBox="0 0 24 24" fill="none" xmlns="http://www.w3.org/2000/svg">
<g id="Truecaller">
<path id="Vector" d="M19.7715 4.7005C18.7582 3.67695 17.5512 2.8654 16.221 2.3132C14.8907 1.76099 13.4639 1.47918 12.0236 1.4842C5.98889 1.4842 1.0705 6.40259 1.0705 12.4373C1.0705 14.3715 1.57891 16.2504 2.52944 17.9083C2.52944 17.9083 3.64944 19.4363 4.5187 20.2736C5.33099 21.056 6.78468 22.0641 6.78468 22.0641C8.3873 22.9372 10.1889 23.4015 12.0236 23.4015C18.0583 23.4015 22.9767 18.4831 22.9767 12.4484C22.9767 9.51942 21.8383 6.76733 19.7715 4.7005ZM12.0236 21.5446C10.3878 21.5446 8.78519 21.1025 7.38152 20.2736L7.04994 20.0746C7.04994 20.0746 6.13791 19.2938 5.59913 18.7462C5.06186 18.2001 4.29785 17.2783 4.29785 17.2783C3.38905 15.8271 2.90648 14.1496 2.90522 12.4373C2.90522 7.41943 6.99468 3.32998 12.0125 3.32998C14.4441 3.32998 16.732 4.2805 18.4451 6.0047C19.2934 6.84908 19.9656 7.85342 20.4229 8.95952C20.8801 10.0656 21.1133 11.2515 21.1088 12.4484C21.1309 17.4662 17.0415 21.5446 12.0236 21.5446ZM17.0194 14.7362C16.743 14.6036 15.3946 13.9404 15.1515 13.841C14.8973 13.7526 14.7204 13.7083 14.5325 13.9736C14.3446 14.2499 13.8252 14.8689 13.6704 15.0457C13.5157 15.2336 13.3499 15.2557 13.0736 15.112C12.7973 14.9794 11.9131 14.681 10.8741 13.7526C10.0562 13.0231 9.51466 12.1278 9.34888 11.8515C9.19414 11.5752 9.32677 11.4315 9.47045 11.2878C9.59203 11.1663 9.74677 10.9673 9.8794 10.8126C10.012 10.6578 10.0673 10.5363 10.1557 10.3594C10.2441 10.1715 10.1999 10.0168 10.1336 9.88416C10.0673 9.75152 9.51466 8.40311 9.29361 7.85048C9.07256 7.31996 8.84046 7.38627 8.67467 7.37522H8.14414C7.95625 7.37522 7.66888 7.44154 7.41467 7.71785C7.17152 7.99416 6.46415 8.65732 6.46415 10.0057C6.46415 11.3541 7.44783 12.6584 7.58046 12.8352C7.71309 13.0231 9.51466 15.7862 12.2557 16.9689C12.9078 17.2562 13.4162 17.422 13.8141 17.5436C14.4662 17.7536 15.0631 17.7204 15.5383 17.6541C16.0688 17.5767 17.163 16.991 17.3841 16.3499C17.6162 15.7089 17.6162 15.1673 17.5388 15.0457C17.4615 14.9241 17.2957 14.8689 17.0194 14.7362Z" fill="#FDFEFF"/>
</g>
</svg>
