<svg width="24" height="24" viewBox="0 0 24 24" fill="none" xmlns="http://www.w3.org/2000/svg">
<g id="whatsapp">
<path id="Vector" d="M19.7714 4.7005C18.7581 3.67695 17.5512 2.8654 16.2209 2.3132C14.8907 1.76099 13.4639 1.47918 12.0236 1.4842C5.98887 1.4842 1.07048 6.40259 1.07048 12.4373C1.07048 14.3715 1.57889 16.2504 2.52942 17.9083L0.982056 23.5893L6.78466 22.0641C8.38728 22.9372 10.1889 23.4015 12.0236 23.4015C18.0583 23.4015 22.9767 18.4831 22.9767 12.4484C22.9767 9.51942 21.8383 6.76733 19.7714 4.7005ZM12.0236 21.5446C10.3878 21.5446 8.78517 21.1025 7.3815 20.2736L7.04992 20.0746L3.60152 20.9809L4.51888 17.621L4.29783 17.2783C3.38903 15.8271 2.90646 14.1496 2.9052 12.4373C2.9052 7.41943 6.99466 3.32998 12.0125 3.32998C14.4441 3.32998 16.732 4.2805 18.4451 6.0047C19.2934 6.84908 19.9656 7.85342 20.4229 8.95952C20.8801 10.0656 21.1133 11.2515 21.1088 12.4484C21.1309 17.4662 17.0414 21.5446 12.0236 21.5446ZM17.0193 14.7362C16.743 14.6036 15.3946 13.9404 15.1515 13.841C14.8972 13.7526 14.7204 13.7083 14.5325 13.9736C14.3446 14.2499 13.8251 14.8689 13.6704 15.0457C13.5157 15.2336 13.3499 15.2557 13.0736 15.112C12.7973 14.9794 11.9131 14.681 10.8741 13.7526C10.0562 13.0231 9.51464 12.1278 9.34886 11.8515C9.19412 11.5752 9.32675 11.4315 9.47043 11.2878C9.59201 11.1663 9.74675 10.9673 9.87938 10.8126C10.012 10.6578 10.0673 10.5363 10.1557 10.3594C10.2441 10.1715 10.1999 10.0168 10.1336 9.88416C10.0673 9.75152 9.51464 8.40311 9.29359 7.85048C9.07254 7.31996 8.84044 7.38627 8.67465 7.37522H8.14412C7.95623 7.37522 7.66886 7.44154 7.41465 7.71785C7.1715 7.99416 6.46413 8.65732 6.46413 10.0057C6.46413 11.3541 7.44781 12.6584 7.58044 12.8352C7.71307 13.0231 9.51464 15.7862 12.2557 16.9689C12.9078 17.2562 13.4162 17.422 13.8141 17.5436C14.4662 17.7536 15.063 17.7204 15.5383 17.6541C16.0688 17.5767 17.163 16.991 17.3841 16.3499C17.6162 15.7089 17.6162 15.1673 17.5388 15.0457C17.4614 14.9241 17.2957 14.8689 17.0193 14.7362Z" fill="#FDFEFF"/>
</g>
</svg>
