<svg width="60" height="148" viewBox="0 0 60 148" fill="none" xmlns="http://www.w3.org/2000/svg">
<path d="M0 123.895C0 121.134 2.23858 118.895 5 118.895C7.76142 118.895 10 121.134 10 123.895V145.671C10 146.775 9.10457 147.671 8 147.671H2C0.89543 147.671 0 146.775 0 145.671V123.895Z" fill="#8EFB99"/>
<path d="M14 41.5488C14 38.7874 16.2386 36.5488 19 36.5488C21.7614 36.5488 24 38.7874 24 41.5488V145.671C24 146.775 23.1046 147.671 22 147.671H16C14.8954 147.671 14 146.775 14 145.671V41.5488Z" fill="#9F8DFB"/>
<path d="M36 5C36 2.23858 38.2386 0 41 0C43.7614 0 46 2.23858 46 5V146C46 147.105 45.1046 148 44 148H38C36.8954 148 36 147.105 36 146V5Z" fill="#E0C6FD"/>
<path d="M50 72C50 69.2386 52.2386 67 55 67C57.7614 67 60 69.2386 60 72V146C60 147.105 59.1046 148 58 148H52C50.8954 148 50 147.105 50 146V72Z" fill="#93AAFD"/>
</svg>
